<svg xmlns="http://www.w3.org/2000/svg" width="150" height="34.67"
	 viewBox="0 0 150 34.67">
	<title>vaadinlogo</title>
	<path d="M149.95,17.33a2,2,0,0,0-1.2-1.86l-.08,0L135.48,8.3a2.28,2.28,0,0,0-3.42,2,2.23,2.23,0,0,0,1.56,2.17l9.11,4.89-9.1,4.88a2.23,2.23,0,0,0-1.57,2.17,2.28,2.28,0,0,0,3.42,2l13.19-7.13.06,0a2,2,0,0,0,1.23-1.87"
		  fill="#00b4f0"/>
	<path d="M130.36,17.32a1.82,1.82,0,0,0-1.82-1.82h-.44a1.73,1.73,0,0,1-1.72-1.73V4.44A4.43,4.43,0,0,0,121.95,0h-3.41a1.7,1.7,0,0,0-.84,3.19h0a1.7,1.7,0,0,0,.83.22h1.07a1.73,1.73,0,0,1,1.73,1.73V8.81h0V13.6a3.65,3.65,0,0,0,3.1,3.61h0a5.38,5.38,0,0,0,.9.09v.08a5.38,5.38,0,0,0-.9.09h0a3.65,3.65,0,0,0-3.1,3.61v4.78h0v3.67a1.73,1.73,0,0,1-1.73,1.73h-1.07a1.7,1.7,0,0,0-.83.22h0a1.7,1.7,0,0,0,.84,3.19h3.41a4.43,4.43,0,0,0,4.43-4.44V20.9a1.73,1.73,0,0,1,1.72-1.73h.44a1.82,1.82,0,0,0,1.82-1.82h0Z"
		  fill="#00b4f0"/>
	<path d="M51,7.64A9.87,9.87,0,1,0,56,26a2.54,2.54,0,0,0,4.81-1.14V17.51A9.87,9.87,0,0,0,51,7.64Zm0,14.64a4.77,4.77,0,1,1,4.77-4.77A4.77,4.77,0,0,1,51,22.28Z"
		  fill="#000"/>
	<path d="M19,10.16A2.54,2.54,0,0,0,14.2,9.07h0L9.49,18.93,4.78,9.07l0-.05-.07-.13-.06-.1-.07-.1-.08-.11L4.41,8.5l-.1-.11-.07-.07-.11-.1L4,8.16l-.1-.08L3.84,8,3.74,8l-.13-.07-.08,0-.15-.06-.08,0-.15,0-.09,0-.15,0-.11,0H2.17l-.11,0-.14,0-.09,0-.17.05-.07,0-.18.07h0l0,0L1.2,8,1.13,8,1,8.11l-.08.06-.11.09-.08.07-.09.1-.07.08-.09.11L.41,8.7l-.09.13,0,.07L.2,9.05l0,.06-.07.17,0,.06L0,9.51l0,.07,0,.15,0,.1S0,9.93,0,10s0,.08,0,.13,0,0,0,.06,0,0,0,.06,0,.09,0,.14,0,.08,0,.12l0,.12,0,.14,0,.1,0,.15,0,.08.07.16,0,0,7,14.61h0a2.54,2.54,0,0,0,4.62.05h0l7-14.66h0A2.53,2.53,0,0,0,19,10.16Z"
		  fill="#000"/>
	<path d="M29.22,7.64A9.87,9.87,0,1,0,34.28,26a2.54,2.54,0,0,0,4.81-1.14V17.51A9.87,9.87,0,0,0,29.22,7.64Zm0,14.64A4.77,4.77,0,1,1,34,17.51,4.77,4.77,0,0,1,29.22,22.28Z"
		  fill="#000"/>
	<path d="M82.42,17V2.88a2.54,2.54,0,0,0-5.08,0v6A9.87,9.87,0,1,0,77.61,26a2.54,2.54,0,0,0,4.81-1.14V18c0-.17,0-.35,0-.52S82.43,17.16,82.42,17Zm-9.86,5.3a4.77,4.77,0,1,1,4.77-4.77A4.77,4.77,0,0,1,72.57,22.28Z"
		  fill="#000"/>
	<circle cx="88.95" cy="2.88" r="2.54" fill="#000"/>
	<path d="M89,7.64a2.54,2.54,0,0,0-2.54,2.54V24.85a2.54,2.54,0,1,0,5.08,0V10.18A2.54,2.54,0,0,0,89,7.64Z"
		  fill="#000"/>
	<path d="M105.74,8.19a7.79,7.79,0,0,0-4.84,1.68,2.54,2.54,0,0,0-5.06.31V24.85a2.54,2.54,0,0,0,5.08,0V17.13a3.78,3.78,0,1,1,7.57,0v7.72a2.54,2.54,0,0,0,5.08,0V16A7.83,7.83,0,0,0,105.74,8.19Z"
		  fill="#000"/>
</svg>
